<svg xmlns="http://www.w3.org/2000/svg" viewBox="0 0 1236 1096" width="1236" height="1096">
	<style>
		tspan { white-space:pre }
		.shp0 { fill: #80b7b3 } 
	</style>
	<g id="Story 2">
		<g id="Group 1" style="opacity: 0.502">
			<path id="Ellipse 1 copy" class="shp0" d="M252.64 984.69L249.81 981.86L1250.36 -18.69L1253.19 -15.86L252.64 984.69M741.25 472.04C747.1 466.18 756.6 466.18 762.46 472.04C768.32 477.9 768.32 487.4 762.46 493.25C756.6 499.11 747.1 499.11 741.25 493.25C735.39 487.4 735.39 477.9 741.25 472.04ZM67.64 1044.69L64.81 1041.86L1065.36 41.31L1068.19 44.14L67.64 1044.69M843.25 243.04C849.1 237.18 858.6 237.18 864.46 243.04C870.32 248.9 870.32 258.39 864.46 264.25C858.6 270.11 849.1 270.11 843.25 264.25C837.39 258.39 837.39 248.9 843.25 243.04Z" />
		</g>
	</g>
</svg>